HIERARCHY
ROOT Hips
{
	OFFSET 0.00000 0.00000 0.00000
	CHANNELS 6 Xposition Yposition Zposition Yrotation Zrotation Xrotation 
	JOINT Lumbar
	{
		OFFSET 0 0 0
		CHANNELS 3 Zrotation Xrotation Yrotation
		JOINT Neck
		{
			OFFSET 0.00 0.2701 0.00
			CHANNELS 3 Zrotation Xrotation Yrotation
			End Site
			{
				OFFSET 0.00 0.1379 0.00
			}
		}
		JOINT RightShoulder
		{
			OFFSET 0.0119 0.2289 0.1181
			CHANNELS 3 Zrotation Xrotation Yrotation
			JOINT RightElbow
			{
				OFFSET 0.00 -0.1475 0.00
				CHANNELS 2 Zrotation Yrotation
				JOINT RightWrist
				{
					OFFSET 0.00 -0.1605 0.00
					CHANNELS 2 Zrotation Xrotation
					End Site
					{
						OFFSET 0.0040 -0.1068 0.0006
					}
				}
			}
		}
		JOINT LeftShoulder
		{
			OFFSET 0.0119 0.2289 -0.1181
			CHANNELS 3 Zrotation Xrotation Yrotation
			JOINT LeftElbow
			{
				OFFSET 0.00 -0.1475 0.00
				CHANNELS 2 Zrotation Yrotation
				JOINT LeftWrist
				{
					OFFSET 0.00 -0.1605 0.00
					CHANNELS 2 Zrotation Xrotation
					End Site
					{
						OFFSET 0.0040 -0.1068 -0.0006
					}
				}
			}
		}
	}
	JOINT RightHip
	{
		OFFSET 0.0316 -0.0424 0.0458
		CHANNELS 3 Zrotation Xrotation Yrotation
		JOINT RightKnee
		{
			OFFSET 0.00 -0.2438 0.00
			CHANNELS 1 Zrotation
			JOINT RightAnkle
			{
				OFFSET 0.00 -0.2449 0.00
				CHANNELS 3 Zrotation Xrotation Yrotation
				End Site
				{
					OFFSET 0.1237 -0.0542 0.0051
				}
			}
		}
	}
	JOINT LeftHip
	{
		OFFSET 0.0316 -0.0424 -0.0458
		CHANNELS 3 Zrotation Xrotation Yrotation
		JOINT LeftKnee
		{
			OFFSET 0.00 -0.2438 0.00
			CHANNELS 1 Zrotation
			JOINT LeftAnkle
			{
				OFFSET 0.00 -0.2449 0.00
				CHANNELS 3 Zrotation Xrotation Yrotation
				End Site
				{
					OFFSET 0.1237 -0.0542 -0.0051
				}
			}
		}
	}
}
MOTION
Frames: 16
Frame Time: 0.02
-0.60348 -0.01035 -0.02075 -170.25869 -34.45433 0.44119 47.82866 -2.65289 -23.7162 6.96198 -16.27519 -0.83079 6.20044 -32.1465 -24.44726 133.62909 124.25483 19.47722 4.26035 16.92285 1.70708 -59.52146 87.35931 -98.72717 25.34219 1.18726 26.59381 -3.46262 -4.47848 -53.11354 -7.81301 -2.18624 -1.81201 49.23336 -1.00175 18.75751 -33.05671 -6.53687 4.37397 2.94567
-0.61031 -0.0091 -0.01822 -168.58141 -34.21367 -0.15791 47.20389 -2.38304 -24.43623 6.9239 -16.26827 -0.83079 5.53666 -31.88564 -24.76658 133.83603 123.22342 19.30649 4.07251 17.13691 1.69048 -59.3069 87.12577 -98.87172 25.0311 1.16477 29.13724 -3.33307 -5.36495 -54.79477 -7.65619 -2.47728 -1.96421 47.59545 -0.70563 18.18446 -32.07079 -6.44047 4.18819 2.84117
-0.61655 -0.00786 -0.01574 -166.66988 -33.98319 -0.83192 46.52644 -2.08025 -25.21844 6.79486 -16.17698 -0.83079 4.52747 -31.67093 -25.23405 134.10116 121.71127 19.00713 3.80827 17.154 1.47129 -58.98852 86.69785 -99.22296 24.54483 1.11287 31.45587 -3.11736 -6.34194 -55.09398 -7.4443 -2.79918 -2.13232 46.04589 -0.26179 17.51274 -31.11886 -6.35413 3.96945 2.71981
-0.62305 -0.00665 -0.01324 -164.86067 -33.75861 -1.4625 45.88259 -1.79568 -25.95533 6.70456 -16.1164 -0.83079 3.69505 -31.43854 -25.62547 134.33343 120.47007 18.77265 3.58905 17.24612 1.34314 -58.71861 86.37402 -99.48315 24.13715 1.07173 33.87768 -2.94349 -7.23643 -55.96361 -7.25236 -3.09528 -2.28757 44.47702 0.10813 16.86131 -30.1602 -6.26519 3.76939 2.60806
-0.62957 -0.00532 -0.01072 -163.06953 -33.48825 -2.13988 45.189 -1.49313 -26.76565 6.62678 -16.08242 -0.83079 2.7781 -31.18704 -26.05194 134.59423 119.01921 18.5126 3.32881 17.40041 1.22145 -58.43777 85.99176 -99.73576 23.73022 1.04002 36.31472 -2.75221 -8.32547 -57.08831 -7.04296 -3.41754 -2.45602 42.82063 0.50871 16.29835 -29.16009 -6.16932 3.55429 2.48846
-0.6359 -0.00423 -0.00826 -161.18401 -33.31645 -2.7339 44.59051 -1.22218 -27.43676 6.50055 -15.97528 -0.83079 1.9575 -30.98816 -26.43993 134.80867 117.8875 18.2749 3.13507 17.37856 1.03846 -58.15796 85.68185 -100.04993 23.28258 0.9827 38.65909 -2.58163 -9.02637 -57.35201 -6.87056 -3.69897 -2.60337 41.36774 0.88083 15.53671 -28.25609 -6.08985 3.36194 2.38081
-0.64183 -0.00373 -0.00598 -159.10543 -33.41064 -3.09059 44.26082 -1.0424 -27.71412 6.26471 -15.68554 -0.83079 1.46296 -30.92515 -26.70236 134.88333 117.73872 18.12731 3.14102 16.91153 0.72171 -57.896 85.61997 -100.50309 22.75278 0.85686 40.80151 -2.45584 -8.58945 -55.53919 -6.82929 -3.89418 -2.70672 40.44905 1.12508 14.20953 -27.6087 -6.0516 3.24673 2.31322
-0.64758 -0.00347 -0.00375 -156.93784 -33.60424 -3.3577 44.03128 -0.89689 -27.84803 5.98268 -15.32625 -0.83079 1.08138 -30.91388 -26.91842 134.90878 117.9278 18.00682 3.21615 16.27484 0.35207 -57.64088 85.63609 -101.00719 22.19144 0.7074 42.85463 -2.35934 -7.76112 -52.91296 -6.83021 -4.04511 -2.78691 39.73227 1.33765 12.69401 -27.05647 -6.02945 3.15416 2.25754
-0.65341 -0.00312 -0.00149 -154.80465 -33.7552 -3.65784 43.76125 -0.73893 -28.04359 5.72039 -15.00025 -0.83079 0.66436 -30.87851 -27.14491 134.95484 117.97207 17.87588 3.26157 15.72052 0.01577 -57.39062 85.61525 -101.47455 21.65226 0.5721 44.94811 -2.27335 -7.14054 -50.68062 -6.80714 -4.19719 -2.86724 38.92798 1.57284 11.29469 -26.46313 -6.00097 3.04744 2.19459
-0.65921 -0.00268 0.00071 -152.68983 -33.89681 -3.99377 43.46729 -0.56651 -28.25616 5.46035 -14.66354 -0.83079 0.16951 -30.84729 -27.42086 135.00998 117.96712 17.73321 3.29907 15.13823 -0.36547 -57.10464 85.59522 -102.00587 21.07099 0.42106 47.04007 -2.08869 -6.40766 -48.29563 -6.80089 -4.42811 -2.99071 38.11231 1.77836 9.76703 -25.86663 -5.96932 2.95686 2.13938
-0.66504 -0.00248 0.00304 -150.51742 -34.08007 -4.2321 43.24856 -0.43288 -28.39857 5.18567 -14.33445 -0.83079 -0.13353 -30.81895 -27.5816 135.03426 118.14591 17.62231 3.36796 14.57508 -0.66472 -56.894 85.5932 -102.41423 20.5758 0.29788 49.11053 -2.11139 -5.80167 -46.05638 -6.77159 -4.48633 -3.01994 37.3628 2.03645 8.4576 -25.29293 -5.94718 2.83723 2.0705
-0.67097 -0.00283 0.00571 -148.21916 -34.36528 -4.22887 43.20641 -0.39749 -28.38082 4.88409 -14.03797 -0.83079 0.08121 -30.78701 -27.42839 134.98036 118.79356 17.59943 3.52903 14.12061 -0.70875 -56.90957 85.63377 -102.4614 20.29514 0.25481 51.19517 -2.75448 -5.75459 -44.39889 -6.66094 -4.05938 -2.78405 36.78294 2.44585 7.84958 -24.80857 -5.94913 2.63356 1.96168
-0.67695 -0.0034 0.00852 -145.86482 -34.68683 -4.12916 43.23818 -0.4002 -28.2975 4.56969 -13.75298 -0.83079 0.48404 -30.75538 -27.1614 134.89758 119.60686 17.60673 3.71584 13.6906 -0.6699 -56.99859 85.68853 -102.38333 20.10811 0.24119 53.2509 -3.5959 -5.83039 -42.92693 -6.52749 -3.46366 -2.45605 36.25532 2.90966 7.46044 -24.33356 -5.95644 2.3936 1.83552
-0.68294 -0.00388 0.01129 -143.53014 -34.98429 -4.06905 43.24058 -0.38599 -28.24472 4.25981 -13.46674 -0.83079 0.79197 -30.72321 -26.95048 134.83123 120.31999 17.59657 3.87607 13.23971 -0.67905 -57.04023 85.72989 -102.36807 19.90033 0.21598 55.28926 -4.31028 -5.77134 -41.3896 -6.40966 -2.95766 -2.17712 35.67963 3.34777 6.93439 -23.82266 -5.96421 2.17703 1.72087
-0.68879 -0.00436 0.01393 -141.21775 -35.31716 -4.02309 43.22804 -0.37137 -28.18334 3.95265 -13.16132 -0.83079 1.14273 -30.6962 -26.71972 134.74991 121.15683 17.60392 4.10001 12.81979 -0.6486 -57.13697 85.80307 -102.33147 19.60241 0.18248 57.46043 -5.17944 -6.01895 -39.74216 -6.2708 -2.39514 -1.86693 35.21425 3.78545 6.55122 -23.45227 -5.9737 1.95717 1.60414
-0.69496 -0.00487 0.01688 -138.84562 -35.58363 -3.92678 43.2636 -0.36611 -28.12681 3.63881 -12.89943 -0.83079 1.44832 -30.65577 -26.50371 134.69273 121.76203 17.58058 4.19832 12.34867 -0.67763 -57.14153 85.81249 -102.30685 19.51099 0.17338 59.34021 -5.77548 -5.67877 -38.37999 -6.1701 -1.91084 -1.60028 34.52826 4.24175 5.93562 -22.78568 -5.96387 1.70383 1.47138
